<svg width="512" height="512" viewBox="0 0 512 512" fill="none" xmlns="http://www.w3.org/2000/svg">
<g clip-path="url(#clip0)">
<path d="M490.667 171.52H21.3333C9.55733 171.52 0 181.077 0 192.853V448C0 483.285 28.7147 512 64 512H448C483.285 512 512 483.285 512 448V192.853C512 181.077 502.443 171.52 490.667 171.52Z" fill="#ECEFF1"/>
<path d="M448 64H64C28.6507 64 0 92.6507 0 128V192.853H512V128C512 92.6507 483.349 64 448 64Z" fill="#2196F3"/>
<path d="M453.333 512H58.6667C26.304 512 0 485.696 0 453.333V101.333C0 68.9707 26.304 42.6667 58.6667 42.6667H453.333C485.696 42.6667 512 68.9707 512 101.333V453.333C512 485.696 485.696 512 453.333 512ZM58.6667 74.6667C43.968 74.6667 32 86.6347 32 101.333V453.333C32 468.032 43.968 480 58.6667 480H453.333C468.032 480 480 468.032 480 453.333V101.333C480 86.6347 468.032 74.6667 453.333 74.6667H58.6667Z" fill="black"/>
<path d="M496 202.667H16C7.168 202.667 0 195.499 0 186.667C0 177.835 7.168 170.667 16 170.667H496C504.832 170.667 512 177.835 512 186.667C512 195.499 504.832 202.667 496 202.667Z" fill="black"/>
<path d="M122.667 128C113.835 128 106.667 120.832 106.667 112V16C106.667 7.168 113.835 0 122.667 0C131.499 0 138.667 7.168 138.667 16V112C138.667 120.832 131.499 128 122.667 128Z" fill="black"/>
<path d="M389.333 128C380.501 128 373.333 120.832 373.333 112V16C373.333 7.168 380.501 0 389.333 0C398.165 0 405.333 7.168 405.333 16V112C405.333 120.832 398.165 128 389.333 128Z" fill="black"/>
</g>
<defs>
<clipPath id="clip0">
<rect width="512" height="512" fill="white"/>
</clipPath>
</defs>
</svg>
